<?xml version="1.0" standalone="no"?>
<!DOCTYPE svg PUBLIC "-//W3C//DTD SVG 20010904//EN"
 "http://www.w3.org/TR/2001/REC-SVG-20010904/DTD/svg10.dtd">
<svg version="1.0" xmlns="http://www.w3.org/2000/svg"
 width="16.000000pt" height="16.000000pt" viewBox="0 0 16.000000 16.000000"
 preserveAspectRatio="xMidYMid meet">
<metadata>
Created by potrace 1.11, written by Peter Selinger 2001-2013
</metadata>
<g transform="translate(0.000000,16.000000) scale(0.002000,-0.002000)"
fill="#000000" stroke="none">
<path d="M2270 7344 c-181 -39 -311 -160 -393 -366 -56 -138 -79 -286 -80
-510 l0 -125 -59 -28 c-133 -64 -204 -207 -171 -351 8 -32 15 -67 16 -77 1
-13 -50 -47 -203 -135 l-205 -118 -2 -373 c-2 -350 -2 -373 15 -366 138 58
634 198 815 231 33 5 37 9 31 28 -22 68 -62 214 -103 376 l-46 185 -50 6 c-28
3 -73 18 -100 32 -56 28 -129 99 -123 117 2 7 123 81 268 166 l265 153 19 -42
c31 -66 28 -176 -8 -249 -27 -58 -99 -132 -144 -149 -16 -6 -22 -15 -18 -27 3
-9 15 -60 27 -112 17 -75 90 -354 116 -441 4 -15 11 -15 71 -2 37 8 83 16 102
19 19 3 42 7 50 9 8 2 38 7 65 10 28 4 57 8 65 10 8 2 38 7 65 10 28 4 61 8
75 10 109 17 316 38 495 51 50 3 95 11 101 17 7 7 57 77 113 157 140 200 313
424 479 620 81 96 137 170 133 177 -29 54 -424 450 -558 561 l-63 51 30 21 29
21 73 -63 c130 -111 392 -366 501 -488 l48 -53 162 164 c182 184 233 232 366
342 l93 77 39 -23 c21 -12 39 -25 39 -28 0 -4 -12 -15 -27 -24 -27 -18 -48
-36 -157 -135 -66 -60 -284 -277 -384 -382 l-62 -66 57 -69 c90 -108 112 -135
141 -172 15 -19 46 -58 70 -87 23 -29 87 -115 142 -191 55 -76 104 -143 109
-149 5 -6 48 -70 96 -142 65 -97 94 -132 109 -133 12 -1 32 -2 46 -4 14 -1 59
-5 100 -9 41 -4 89 -9 105 -11 17 -2 64 -6 105 -10 41 -3 82 -8 90 -10 8 -2
40 -7 70 -10 30 -3 62 -8 70 -10 8 -2 44 -7 80 -10 36 -4 68 -9 71 -10 3 -2
50 -11 105 -20 54 -9 110 -18 124 -20 14 -3 41 -8 60 -11 19 -3 38 -8 41 -10
4 -2 9 6 12 19 3 12 23 84 46 159 59 194 107 400 131 563 28 180 24 170 58
148 15 -10 36 -23 47 -29 16 -10 20 -21 18 -60 -3 -83 -72 -400 -130 -599 -30
-104 -57 -198 -60 -207 -4 -12 2 -19 18 -22 58 -12 359 -88 409 -102 100 -30
107 -29 124 3 39 76 155 153 234 157 l37 1 0 -312 0 -313 -35 0 c-51 0 -149
50 -194 100 -60 67 -81 121 -81 217 0 79 -1 82 -25 87 -14 2 -119 29 -235 59
-115 30 -224 57 -241 60 l-30 6 -33 -97 c-19 -53 -39 -110 -46 -127 -7 -16
-36 -91 -65 -165 -81 -208 -156 -381 -276 -637 l-35 -73 32 -68 c40 -88 169
-389 202 -472 76 -197 99 -257 142 -381 l47 -136 101 24 c56 12 112 25 124 27
54 11 258 71 363 108 63 22 135 46 160 55 25 8 61 24 82 34 39 20 47 15 44
-30 -1 -21 -11 -29 -61 -48 -143 -56 -464 -154 -581 -178 -16 -3 -33 -7 -39
-9 -5 -1 -28 -7 -50 -11 -22 -5 -42 -10 -45 -10 -3 -1 -22 -5 -43 -10 -28 -5
-37 -11 -32 -23 8 -22 102 -352 108 -382 3 -14 8 -34 11 -45 13 -51 65 -309
71 -357 4 -29 9 -56 11 -60 2 -3 -16 -18 -40 -32 -44 -26 -68 -33 -64 -18 2 7
-10 100 -17 132 -2 8 -6 33 -10 55 -22 132 -80 364 -155 626 l-22 76 -37 -8
c-20 -4 -52 -10 -71 -13 -19 -3 -48 -8 -65 -11 -16 -3 -46 -8 -65 -11 -19 -3
-48 -8 -65 -10 -16 -2 -47 -6 -68 -10 -42 -7 -66 -10 -152 -19 -33 -3 -67 -8
-75 -10 -8 -2 -49 -7 -90 -10 -41 -4 -82 -8 -90 -10 -8 -1 -53 -6 -100 -9
-113 -9 -184 -17 -192 -22 -3 -2 -38 -51 -77 -108 -170 -249 -453 -617 -628
-815 -18 -20 -28 -41 -25 -48 36 -64 444 -471 575 -573 34 -27 34 -36 -2 -48
-29 -10 -35 -6 -143 86 -101 85 -327 306 -446 435 l-44 47 -197 -198 -197
-197 23 -51 c29 -63 33 -169 9 -227 -18 -42 -26 -44 -63 -20 -15 10 -133 79
-263 154 -175 102 -238 134 -246 125 -38 -38 -52 -192 -25 -260 13 -33 13 -33
-89 -95 -234 -141 -460 -215 -618 -204 -279 20 -458 344 -456 823 1 78 11 237
19 299 3 20 7 51 9 69 3 19 6 36 9 38 2 3 87 -44 188 -102 101 -59 204 -118
229 -131 25 -14 50 -28 55 -33 6 -4 30 -19 55 -32 25 -14 175 -100 334 -192
l288 -167 54 51 c73 69 130 93 225 93 65 0 84 -4 138 -31 l63 -31 137 137 c75
76 162 165 194 198 l58 60 -106 130 c-182 221 -391 502 -539 722 -39 56 -77
102 -85 103 -9 0 -24 2 -34 4 -10 2 -51 6 -90 9 -114 10 -179 16 -217 21 -19
3 -54 7 -77 10 -109 13 -133 16 -203 26 -41 6 -82 13 -91 14 -9 2 -40 6 -69
10 -29 4 -62 9 -74 11 -12 2 -36 7 -55 10 -18 3 -43 8 -55 10 -11 3 -41 7 -66
10 l-45 6 -38 -125 c-79 -262 -169 -649 -176 -760 -1 -16 -5 -16 -43 8 -24 14
-48 29 -55 33 -23 14 74 458 163 741 20 67 35 124 32 127 -4 3 -70 21 -148 40
-236 57 -404 107 -580 175 -103 39 -107 42 -106 70 1 30 6 35 22 20 15 -14
259 -106 369 -140 92 -28 305 -85 365 -97 14 -3 42 -9 62 -13 34 -8 38 -7 46
18 6 14 31 85 56 156 26 72 53 144 61 162 8 17 15 34 15 38 0 4 6 21 14 38 7
18 48 115 91 217 43 102 107 245 143 318 35 74 62 141 59 150 -3 10 -42 98
-87 197 -96 213 -208 492 -280 701 -41 119 -56 151 -69 148 -295 -66 -595
-154 -817 -242 l-51 -21 2 36 c1 19 -4 37 -10 39 -7 3 -66 -18 -131 -46 -524
-225 -835 -531 -835 -820 0 -76 3 -92 31 -176 19 -56 82 -167 113 -199 7 -6
28 -30 48 -52 53 -59 148 -135 263 -212 124 -82 182 -112 361 -186 77 -32 144
-61 148 -65 4 -4 8 -176 8 -383 l-1 -376 315 -181 c279 -161 314 -184 310
-203 -8 -39 -20 -141 -30 -257 -6 -66 -6 -297 0 -360 33 -365 167 -595 396
-679 239 -88 546 -33 864 154 85 50 82 50 115 21 85 -71 196 -89 311 -51 40
14 69 34 113 78 l60 59 30 -16 c17 -8 51 -27 76 -42 68 -39 254 -147 260 -150
3 -1 129 69 280 157 151 87 289 166 306 175 l31 16 94 -69 c195 -146 423 -275
570 -324 155 -53 315 -70 440 -47 131 24 264 115 346 238 39 57 96 195 108
257 22 119 26 149 31 210 11 136 5 371 -12 528 -14 124 -48 92 311 299 l320
185 3 375 c1 241 6 376 12 376 20 0 197 73 295 122 127 63 226 124 340 209
358 266 433 594 204 890 -100 130 -251 246 -489 378 -44 24 -55 34 -52 53 1
13 3 55 3 93 3 155 -110 287 -264 310 l-47 7 -2 226 -3 226 -180 104 c-99 57
-198 114 -220 127 -171 97 -206 118 -210 125 -3 4 2 54 9 111 18 134 18 445 0
574 -45 320 -162 505 -379 598 -114 49 -311 57 -461 18 -204 -52 -422 -163
-658 -334 l-90 -65 -25 18 c-14 10 -102 62 -196 115 -93 54 -213 123 -265 154
-159 94 -124 94 -301 -7 -85 -49 -215 -124 -289 -167 -74 -43 -140 -81 -145
-86 -6 -4 -38 14 -75 43 -152 118 -373 251 -490 296 -100 38 -182 65 -240 79
-89 21 -250 25 -330 7z m260 -48 c128 -13 336 -102 520 -224 125 -83 271 -195
262 -203 -7 -6 -1096 -635 -1139 -658 -20 -10 -27 -6 -70 37 -48 48 -126 92
-162 92 -11 0 -20 9 -23 23 -7 40 5 298 17 357 3 14 8 41 11 60 3 19 17 71 31
115 61 196 163 320 313 379 48 20 132 35 165 30 11 -1 45 -5 75 -8z m3190 -41
c174 -38 332 -252 366 -495 2 -19 8 -64 13 -100 5 -36 8 -162 6 -280 -3 -209
-10 -298 -23 -312 -4 -4 -108 52 -232 123 -124 72 -243 141 -265 153 -22 13
-157 91 -300 173 -143 83 -276 160 -295 171 -161 91 -256 146 -260 149 -8 7
56 57 175 137 331 223 621 323 815 281z m-4550 -2567 c2 -550 -1 -1483 -5
-1486 -5 -5 -209 80 -280 116 -117 60 -279 177 -363 262 -150 150 -209 281
-199 439 9 146 64 251 206 391 101 99 188 164 331 245 81 46 287 145 303 145
4 0 7 -51 7 -112z m6116 -109 c435 -289 515 -650 213 -959 -62 -64 -218 -187
-284 -224 -16 -9 -59 -35 -95 -56 -36 -22 -87 -51 -115 -64 -81 -39 -167 -76
-176 -76 -5 0 -9 293 -9 669 0 729 -4 681 54 681 41 0 145 60 183 105 l35 43
62 -36 c33 -19 93 -57 132 -83z m-1215 -2681 c0 -18 3 -62 6 -98 13 -140 7
-371 -13 -509 -26 -183 -95 -352 -183 -448 -43 -46 -123 -99 -183 -119 -55
-19 -208 -26 -278 -12 -164 32 -350 129 -623 327 -111 80 -117 86 -100 102 15
14 258 157 453 267 75 42 404 231 420 242 8 5 47 27 85 49 39 22 144 83 235
135 91 53 168 96 172 96 5 0 8 -15 9 -32z"/>
<path d="M3917 6042 c-174 -207 -453 -574 -541 -713 l-16 -26 127 6 c191 8
835 7 1021 -2 l163 -7 -12 22 c-25 48 -202 299 -332 473 -94 124 -284 362
-296 369 -3 2 -55 -53 -114 -122z"/>
<path d="M4028 5275 c-2 -2 -122 -6 -268 -9 -336 -8 -432 -14 -446 -29 -33
-36 -357 -564 -444 -722 -18 -33 -57 -104 -86 -157 -29 -54 -83 -157 -120
-229 l-66 -131 111 -221 c61 -122 127 -251 147 -287 19 -36 52 -94 71 -130 57
-104 200 -344 286 -482 78 -126 80 -128 115 -128 21 -1 87 -4 147 -8 241 -15
1160 -5 1207 13 21 9 313 468 415 655 127 231 160 292 227 423 42 81 76 155
76 163 0 29 -240 496 -375 729 -32 55 -66 114 -75 130 -111 194 -242 395 -258
396 -10 0 -44 2 -77 5 -33 2 -161 6 -285 9 -124 3 -242 7 -262 9 -21 2 -39 2
-40 1z m119 -669 c123 -32 208 -80 295 -167 163 -162 223 -415 151 -628 -90
-267 -325 -434 -608 -432 -334 2 -612 288 -607 625 1 45 3 88 5 96 2 8 7 33
12 55 18 88 88 209 164 285 158 156 382 220 588 166z"/>
<path d="M3127 5234 c-1 -1 -43 -5 -93 -8 -51 -4 -100 -8 -110 -10 -11 -2 -48
-7 -84 -10 -36 -4 -76 -8 -90 -10 -14 -2 -47 -7 -75 -11 -93 -12 -120 -16
-240 -36 -66 -11 -133 -22 -150 -25 -42 -6 -125 -25 -125 -29 0 -1 20 -62 45
-134 67 -196 145 -397 228 -592 93 -217 99 -229 106 -229 3 0 17 21 31 48 68
130 248 456 296 535 30 50 54 91 54 93 0 4 159 258 216 346 24 37 44 70 44 73
0 4 -48 3 -53 -1z"/>
<path d="M4836 5211 c153 -249 251 -410 260 -426 6 -11 21 -38 34 -60 77 -135
179 -324 246 -455 l77 -152 18 24 c10 12 19 26 19 30 0 3 16 41 36 84 81 176
197 463 292 724 45 121 45 123 -3 131 -22 4 -53 10 -70 13 -38 8 -209 35 -255
42 -19 2 -53 7 -75 11 -43 6 -53 8 -130 18 -100 12 -111 14 -180 20 -38 4 -78
9 -88 11 -10 2 -59 6 -109 9 l-91 6 19 -30z"/>
<path d="M2487 3768 c-111 -245 -221 -515 -302 -745 l-44 -123 25 -5 c13 -3
36 -8 52 -11 15 -4 36 -8 47 -10 11 -2 34 -6 50 -9 52 -9 99 -17 125 -20 14
-2 39 -6 55 -9 17 -2 50 -7 75 -11 25 -4 56 -8 70 -10 14 -2 50 -7 80 -10 30
-3 75 -8 100 -11 25 -2 61 -7 80 -9 19 -2 63 -7 98 -10 34 -3 89 -8 123 -11
33 -3 59 -2 56 3 -3 4 -52 85 -109 178 -96 157 -152 251 -207 348 -11 20 -29
52 -39 70 -59 103 -84 150 -175 327 -55 107 -101 196 -102 198 -1 1 -27 -53
-58 -120z"/>
<path d="M5426 3791 c-44 -86 -100 -190 -184 -341 -14 -25 -39 -70 -55 -100
-45 -81 -220 -370 -293 -482 -35 -54 -60 -99 -56 -101 4 -2 16 -2 27 -1 69 6
165 15 195 19 19 2 60 7 90 10 30 4 66 8 80 10 14 2 45 6 70 10 25 3 56 8 70
10 14 2 45 7 70 10 41 6 191 30 250 41 14 2 40 7 59 10 58 10 71 13 80 19 11
6 -134 430 -188 550 -5 11 -44 103 -86 205 -42 102 -81 189 -85 194 -5 5 -25
-24 -44 -63z"/>
<path d="M3330 2703 c0 -12 172 -268 227 -338 4 -6 54 -72 111 -148 56 -76
109 -145 117 -155 7 -9 44 -55 82 -102 37 -47 79 -97 93 -112 l25 -28 75 91
c41 50 85 103 98 117 31 36 209 265 247 318 60 83 232 329 239 342 6 10 -20
11 -131 5 -280 -15 -1145 -5 -1175 13 -4 3 -8 1 -8 -3z"/>
</g>
</svg>
